Coordinates
version=1
nRows=26
nColumns=22
inDegrees=yes

Units are S.I. units (second, meters, Newtons, ...)
If the header above contains a line with 'inDegrees', this indicates whether rotational values are in degrees (yes) or radians (no).

endheader
time	pelvis_tilt	pelvis_list	pelvis_rotation	pelvis_tx	pelvis_ty	pelvis_tz	hip_flexion_r	hip_adduction_r	hip_rotation_r	knee_angle_r	ankle_angle_r	subtalar_angle_r	hip_flexion_l	hip_adduction_l	hip_rotation_l	knee_angle_l	ankle_angle_l	subtalar_angle_l	lumbar_extension	lumbar_bending	lumbar_rotation
      3.81000000	     -8.87526218	     -5.76899628	     -3.59139502	      1.32910543	      0.97425659	      0.33086364	     13.07880389	     10.22192181	     -1.33845693	    -22.19729952	     20.93325243	     -6.96394974	     37.04737297	     -8.62227793	     -3.63055507	    -24.58870926	      8.36012443	      8.03113310	     -2.64393043	      9.05151485	      7.68333395
      3.82000000	     -8.82919007	     -5.79643395	     -3.69496072	      1.33581941	      0.97364293	      0.33026651	     12.62053736	     10.18808138	     -1.29237109	    -22.27140920	     21.26393179	     -6.80955369	     36.93958079	     -8.47023578	     -3.38022955	    -23.27203969	      8.38652996	      8.52140439	     -2.68931610	      9.08261955	      7.72933867
      3.83000000	     -8.77428076	     -5.83495503	     -3.79773334	      1.34265227	      0.97299556	      0.32964694	     12.14475359	     10.16437830	     -1.23187047	    -22.34730804	     21.59546171	     -6.63563513	     36.81132045	     -8.33654473	     -3.13376386	    -22.11662940	      8.53237916	      8.93400615	     -2.72605342	      9.12067893	      7.76575449
      3.84000000	     -8.72268009	     -5.87936161	     -3.89163765	      1.34959732	      0.97227963	      0.32898454	     11.67659394	     10.13957078	     -1.19199869	    -22.44434464	     21.95149953	     -6.48476994	     36.67979747	     -8.20866949	     -2.88321814	    -21.13085743	      8.76640755	      9.21018515	     -2.73617591	      9.16058195	      7.78353191
      3.85000000	     -8.64571460	     -5.95014112	     -3.98822853	      1.35663232	      0.97157097	      0.32830581	     11.17582059	     10.14044577	     -1.12141868	    -22.54526832	     22.26022677	     -6.26613814	     36.51177011	     -8.11471500	     -2.64623692	    -20.31346424	      9.06002833	      9.44404839	     -2.76893472	      9.22341779	      7.80838473
      3.86000000	     -8.60136977	     -6.03541685	     -4.07583945	      1.36374651	      0.97074295	      0.32759241	     10.72075225	     10.15606698	     -1.03847794	    -22.68034544	     22.58804629	     -6.09045612	     36.38319659	     -8.03422931	     -2.41078896	    -19.68589860	      9.37009497	      9.56677455	     -2.74441673	      9.30216922	      7.79094135
      3.87000000	     -8.52437983	     -6.12747997	     -4.15912092	      1.37101577	      0.96997846	      0.32681650	     10.20897483	     10.16238476	     -0.98587471	    -22.78619005	     22.85690663	     -5.80748467	     36.19510208	     -7.95774832	     -2.19077529	    -19.21109375	      9.60765898	      9.66846768	     -2.73694408	      9.38267813	      7.80501977
      3.88000000	     -8.47045653	     -6.23336226	     -4.22108449	      1.37835924	      0.96912550	      0.32599848	      9.73416440	     10.18205199	     -0.92010562	    -22.92885809	     23.14585922	     -5.54538452	     36.04268151	     -7.88791201	     -1.97250419	    -18.93038451	      9.76324214	      9.70716750	     -2.68296213	      9.47338288	      7.76693637
      3.89000000	     -8.42917642	     -6.33267942	     -4.28007818	      1.38581236	      0.96827562	      0.32510587	      9.26708279	     10.18484358	     -0.86683793	    -23.06773143	     23.38112169	     -5.22826911	     35.88306127	     -7.80608862	     -1.73896173	    -18.79632665	      9.74398967	      9.69030029	     -2.59563247	      9.55998565	      7.73000667
      3.90000000	     -8.41511388	     -6.41907438	     -4.32727090	      1.39334877	      0.96739347	      0.32416128	      8.83583311	     10.16922468	     -0.82265099	    -23.22460597	     23.58510919	     -4.89955903	     35.75287237	     -7.70633836	     -1.48134027	    -18.83067091	      9.52919450	      9.58673399	     -2.45608199	      9.62647574	      7.67559375
      3.91000000	     -8.42179234	     -6.49726945	     -4.37406131	      1.40093200	      0.96650175	      0.32314769	      8.44534132	     10.14207200	     -0.76558662	    -23.42017414	     23.79362429	     -4.53712607	     35.65427222	     -7.60191496	     -1.22519503	    -19.03165083	      9.10826760	      9.34454686	     -2.28183568	      9.68901748	      7.60201395
      3.92000000	     -8.45600842	     -6.54564578	     -4.38801210	      1.40858416	      0.96563163	      0.32204608	      8.08940879	     10.07978159	     -0.72440523	    -23.62182333	     23.93833361	     -4.23752773	     35.59907462	     -7.45437474	     -0.92287445	    -19.37650685	      8.42274243	      9.01583229	     -2.05337512	      9.71503286	      7.47155588
      3.93000000	     -8.50990003	     -6.57424154	     -4.40104370	      1.41628512	      0.96481323	      0.32087974	      7.75955765	      9.99676526	     -0.65782337	    -23.83228410	     24.07480094	     -3.84464051	     35.59402611	     -7.29893874	     -0.63812536	    -19.87493534	      7.55824590	      8.44992645	     -1.78917464	      9.72222978	      7.35094286
      3.94000000	     -8.56797755	     -6.55063504	     -4.36055905	      1.42400808	      0.96407787	      0.31955362	      7.47004030	      9.84528845	     -0.65307571	    -24.09295918	     24.15323675	     -3.51916931	     35.63519008	     -7.07429652	     -0.34768538	    -20.50413443	      6.58673751	      7.85230669	     -1.50370106	      9.67355371	      7.13978718
      3.95000000	     -8.63360407	     -6.50454132	     -4.32525795	      1.43173598	      0.96346211	      0.31822125	      7.20661343	      9.67853251	     -0.60231249	    -24.38163424	     24.19269819	     -3.09398496	     35.72359193	     -6.85084062	     -0.10144098	    -21.25534959	      5.65499883	      7.04817089	     -1.20577091	      9.59148243	      6.94958538
      3.96000000	     -8.68581617	     -6.39774114	     -4.23665101	      1.43948101	      0.96299172	      0.31672027	      6.97274822	      9.43236245	     -0.61468485	    -24.73285848	     24.19352246	     -2.66682803	     35.83904547	     -6.55142479	      0.11440420	    -22.10322089	      4.89184405	      6.24166976	     -0.90979941	      9.44493669	      6.69434247
      3.97000000	     -8.71531711	     -6.24651424	     -4.12621906	      1.44721010	      0.96270720	      0.31515410	      6.76294322	      9.13881608	     -0.61896869	    -25.15773718	     24.14559443	     -2.18035440	     35.94641274	     -6.20572113	      0.31389641	    -23.00432362	      4.37594903	      5.42590559	     -0.64085285	      9.24186237	      6.42826762
      3.98000000	     -8.71114267	     -6.05534550	     -3.99478386	      1.45492227	      0.96262825	      0.31350991	      6.57342846	      8.80033545	     -0.61963989	    -25.67079326	     24.04855007	     -1.60001151	     36.01580352	     -5.81111090	      0.50292606	    -23.92302944	      4.11636018	      4.61779981	     -0.41447511	      8.99066126	      6.17020217
      3.99000000	     -8.66535746	     -5.81242887	     -3.83848316	      1.46262496	      0.96275534	      0.31178272	      6.41606253	      8.39919853	     -0.64162896	    -26.30702268	     23.87882878	     -0.94503495	     36.00669635	     -5.34716834	      0.69659175	    -24.80078337	      4.12680487	      3.88630339	     -0.23905361	      8.67566582	      5.91974711
      4.00000000	     -8.58035066	     -5.52626433	     -3.66297529	      1.47031510	      0.96306751	      0.30999919	      6.29559994	      7.94802625	     -0.67273618	    -27.07272720	     23.66704377	     -0.21716906	     35.90813127	     -4.82887712	      0.86630189	    -25.60869209	      4.33854661	      3.22930703	     -0.11356994	      8.30610629	      5.67732160
      4.01000000	     -8.46596254	     -5.20495973	     -3.49052754	      1.47796883	      0.96354380	      0.30819931	      6.23268640	      7.46181747	     -0.67481667	    -27.98557964	     23.38642874	      0.60120360	     35.70130524	     -4.27455370	      1.01605412	    -26.29371180	      4.73058253	      2.64757943	     -0.03210835	      7.89164690	      5.46885963
      4.02000000	     -8.33381343	     -4.85870413	     -3.33587612	      1.48554581	      0.96414403	      0.30639767	      6.25082713	      6.94637900	     -0.67127863	    -29.06062270	     23.02730601	      1.50432753	     35.39851964	     -3.70880684	      1.09958537	    -26.84565089	      5.21044991	      2.13318625	      0.01333642	      7.45061698	      5.30507520
      4.03000000	     -8.20611459	     -4.49490070	     -3.21196140	      1.49299271	      0.96481937	      0.30461741	      6.37901221	      6.41028742	     -0.65430998	    -30.30066694	     22.58493257	      2.47850245	     35.01936816	     -3.14864711	      1.10482335	    -27.24922671	      5.73496028	      1.67803378	      0.04361421	      6.99262140	      5.19043761
      4.04000000	     -8.10485194	     -4.12410286	     -3.13429834	      1.50025514	      0.96551876	      0.30289828	      6.64180457	      5.86289973	     -0.63273767	    -31.69748179	     22.04884050	      3.50180289	     34.59386490	     -2.61608109	      1.01971141	    -27.50818584	      6.27140365	      1.26963494	      0.08135139	      6.53059383	      5.13034410
      4.05000000	     -8.04942622	     -3.75324023	     -3.11270546	      1.50728141	      0.96619493	      0.30125160	      7.05778084	      5.30791355	     -0.61144245	    -33.23723274	     21.41859644	      4.53752952	     34.15338918	     -2.12241783	      0.84883149	    -27.63530290	      6.79015820	      0.90015849	      0.14537264	      6.07771638	      5.12181268
      4.06000000	     -8.05035805	     -3.38774901	     -3.15005795	      1.51403186	      0.96681808	      0.29970717	      7.63305435	      4.74913754	     -0.59908376	    -34.90025910	     20.69911342	      5.53874271	     33.72550544	     -1.67793934	      0.59067394	    -27.65209543	      7.27746344	      0.56578167	      0.24715166	      5.63922387	      5.15118214
